<svg aria-label="" role="presentation" aria-hidden="true" preserveAspectRatio="xMidYMid meet" data-type="color" viewBox="31.261 51.915 137.479 96.171" xmlns:xlink="http://www.w3.org/1999/xlink" xmlns="http://www.w3.org/2000/svg" data-bbox="31.261 51.915 137.479 96.171" id="snap_dbf5face-869b-4249-bc75-397d2ca04b9f_2" class="snap_dbf5face-869b-4249-bc75-397d2ca04b9f_svg"><g data-type="color" id="snap_dbf5face-869b-4249-bc75-397d2ca04b9f_3" class="snap_dbf5face-869b-4249-bc75-397d2ca04b9f_g"><g id="snap_dbf5face-869b-4249-bc75-397d2ca04b9f_4">
        <path fill="#0E8547" d="M167.239 99.089h-19.032c2.755-4.717 4.23-10.093 4.23-15.704 0-17.224-14.013-31.236-31.237-31.236-7.879 0-15.307 2.896-21.078 8.186-5.806-5.441-13.321-8.42-21.324-8.42-17.224 0-31.236 14.013-31.236 31.236a31.181 31.181 0 006.041 18.455H32.761a1.5 1.5 0 100 3H81.48a1.5 1.5 0 001.414-.999l3.263-9.215 8.143 23.055a1.5 1.5 0 001.414 1l.077-.002a1.498 1.498 0 001.381-1.145l7.93-32.657 6.543 24.512a1.5 1.5 0 002.647.517l5.723-7.582h22.327c-.417.47-.845.933-1.296 1.379l-40.989 40.994-27.887-27.979a1.5 1.5 0 10-2.125 2.117l28.948 29.044a1.5 1.5 0 001.062.441h.001c.398 0 .779-.158 1.061-.439l42.045-42.051a31.817 31.817 0 003.062-3.506h21.016a1.5 1.5 0 10-.001-3.001zm-47.972 0c-.471 0-.914.221-1.197.597l-4.32 5.724-7.268-27.227a1.5 1.5 0 00-1.449-1.113h-.017a1.498 1.498 0 00-1.44 1.146l-8.128 33.472-7.874-22.294a1.5 1.5 0 10-2.828-.001l-4.325 12.213H57.444a28.18 28.18 0 01-6.881-18.455c0-15.569 12.667-28.236 28.236-28.236 7.684 0 14.872 3.038 20.238 8.556a1.5 1.5 0 001.067.454c.443-.026.789-.157 1.072-.442 5.34-5.374 12.452-8.333 20.025-8.333 15.57 0 28.237 12.667 28.237 28.236 0 5.678-1.665 11.095-4.764 15.704h-25.407z" id="snap_dbf5face-869b-4249-bc75-397d2ca04b9f_5" class="snap_dbf5face-869b-4249-bc75-397d2ca04b9f_path"></path>
    </g></g></svg>