<svg aria-label="" role="presentation" aria-hidden="true" preserveAspectRatio="xMidYMid meet" data-type="color" viewBox="20 52.591 160 95.818" xmlns:xlink="http://www.w3.org/1999/xlink" xmlns="http://www.w3.org/2000/svg" data-bbox="20 52.591 160 95.818" id="snap_847b09b5-a452-44d9-a47e-6e78175db286_2" class="snap_847b09b5-a452-44d9-a47e-6e78175db286_svg"><g data-type="color" id="snap_847b09b5-a452-44d9-a47e-6e78175db286_3" class="snap_847b09b5-a452-44d9-a47e-6e78175db286_g"><g id="snap_847b09b5-a452-44d9-a47e-6e78175db286_4" >
        <path fill="#2E5252" d="M82.177 97.543c0 14.984 5.994 29.968 17.981 44.952 11.987-14.984 17.981-29.968 17.981-44.952s-5.994-29.968-17.981-44.952C88.17 67.575 82.177 82.559 82.177 97.543zm17.98 39.038c-9.549-13.054-14.385-26.17-14.385-39.039 0-12.867 4.836-25.982 14.385-39.038 9.549 13.054 14.385 26.167 14.385 39.038-.001 12.873-4.836 25.986-14.385 39.039z" id="snap_847b09b5-a452-44d9-a47e-6e78175db286_5" class="snap_847b09b5-a452-44d9-a47e-6e78175db286_path"></path>
        <path fill="#2E5252" d="M105.863 96.12c-7.492 12.976-9.793 28.949-6.904 47.92 17.873-6.983 30.556-16.963 38.048-29.939 7.492-12.976 9.793-28.95 6.904-47.92-17.873 6.983-30.556 16.963-38.048 29.939zm35.091-24.817c1.742 16.075-.625 29.851-7.062 41.001-6.434 11.143-17.176 20.084-31.975 26.616-1.744-16.077.625-29.854 7.062-41.003 6.433-11.146 17.178-20.083 31.975-26.614z" id="snap_847b09b5-a452-44d9-a47e-6e78175db286_6" class="snap_847b09b5-a452-44d9-a47e-6e78175db286_path"></path>
        <path fill="#2E5252" d="M99.547 143.036c2.889-18.97.588-34.943-6.904-47.92C85.15 82.14 72.468 72.16 54.595 65.178c-2.889 18.97-.588 34.943 6.904 47.92 7.492 12.975 20.174 22.955 38.048 29.938zM57.551 70.299c14.795 6.53 25.542 15.47 31.975 26.616 6.437 11.147 8.806 24.924 7.062 41.001-14.794-6.529-25.54-15.47-31.975-26.616-6.435-11.147-8.804-24.924-7.062-41.001z" id="snap_847b09b5-a452-44d9-a47e-6e78175db286_7" class="snap_847b09b5-a452-44d9-a47e-6e78175db286_path"></path>
        <path fill="#2E5252" d="M143.909 144.912c14.08-5.125 26.111-15.882 36.091-32.271-18.18-6.139-34.31-6.647-48.39-1.522-14.08 5.125-26.111 15.882-36.091 32.271 18.18 6.139 34.31 6.646 48.39 1.522zm-11.071-30.413c12.098-4.404 26.072-4.344 41.605.165-9.001 13.44-19.67 22.469-31.765 26.869-12.098 4.4-26.075 4.344-41.601-.165 8.997-13.436 19.666-22.465 31.761-26.869z" id="snap_847b09b5-a452-44d9-a47e-6e78175db286_8" class="snap_847b09b5-a452-44d9-a47e-6e78175db286_path"></path>
        <path fill="#2E5252" d="M104.481 143.39c-9.98-16.389-22.011-27.146-36.091-32.271-14.08-5.125-30.21-4.617-48.39 1.522 9.98 16.389 22.011 27.146 36.091 32.271 14.08 5.124 30.21 4.617 48.39-1.522zm-47.162-1.857c-12.095-4.404-22.764-13.433-31.761-26.869 15.533-4.506 29.512-4.569 41.603-.165 12.093 4.4 22.764 13.433 31.763 26.869-15.533 4.506-29.506 4.569-41.605.165z" id="snap_847b09b5-a452-44d9-a47e-6e78175db286_9" class="snap_847b09b5-a452-44d9-a47e-6e78175db286_path"></path>
    </g></g></svg>