<svg aria-label="" role="presentation" aria-hidden="true" preserveAspectRatio="xMidYMid meet" data-type="color" viewBox="46.5 20 107.001 159.999" xmlns:xlink="http://www.w3.org/1999/xlink" xmlns="http://www.w3.org/2000/svg" data-bbox="46.5 20 107.001 159.999" id="snap_9da89abd-a8e2-41bc-bebe-cedcff778647_2" class="snap_9da89abd-a8e2-41bc-bebe-cedcff778647_svg"><g data-type="color" id="snap_9da89abd-a8e2-41bc-bebe-cedcff778647_3" class="snap_9da89abd-a8e2-41bc-bebe-cedcff778647_g"><g id="snap_9da89abd-a8e2-41bc-bebe-cedcff778647_4">
        <path d="M66.604 170.974s4.003-28.713 7.262-41.53c4.109-16.158 23.522-28.49 23.522-28.49s-8.077 2.977-15.728 2.835c-7.652-.142-7.975-6.751-6.801-10.489 0 0-9.352-2.268-5.384-12.615 3.968-10.347 24.99-16.726 40.242-21.403 19.412-5.953 43.703 9.007 43.784 38.978.071 26.364-23.032 47.895-23.032 47.895l-9.4 33.494c-.001.001-27.95 3.019-54.465-8.675z" fill="#6588FC" id="snap_9da89abd-a8e2-41bc-bebe-cedcff778647_5" class="snap_9da89abd-a8e2-41bc-bebe-cedcff778647_path"></path>
        <path d="M75.262 94.473c3.07.263 5.963-.742 8.253-2.792.613-.549-.292-1.448-.902-.902-2.053 1.838-4.614 2.653-7.352 2.418-.816-.07-.812 1.206.001 1.276z" fill="#394075" id="snap_9da89abd-a8e2-41bc-bebe-cedcff778647_6" class="snap_9da89abd-a8e2-41bc-bebe-cedcff778647_path"></path>
        <path d="M133.875 20.496c-20.192-3.614-34.858 13.713-34.858 13.713S84.352 16.882 64.16 20.496C43.968 24.11 43.911 44.93 50.132 58.234c12.328 26.364 48.886 43.585 48.886 43.585s36.558-17.221 48.886-43.585c6.22-13.304 6.163-34.124-14.029-37.738z" fill="#FF6A45" id="snap_9da89abd-a8e2-41bc-bebe-cedcff778647_7" class="snap_9da89abd-a8e2-41bc-bebe-cedcff778647_path"></path>
        <path d="M104.189 111.443s-7.429-18.412-8.811-26.066c-1.382-7.654 1.523-13.926 7.616-14.67 6.093-.744 21.741 27.448 21.741 27.448l-20.546 13.288z" fill="#6588FC" id="snap_9da89abd-a8e2-41bc-bebe-cedcff778647_8" class="snap_9da89abd-a8e2-41bc-bebe-cedcff778647_path"></path>
        <path d="M119.707 90.018a209.213 209.213 0 0 0 8.051 12.123c.473.662 1.58.026 1.101-.644a209.73 209.73 0 0 1-8.051-12.123c-.43-.698-1.533-.058-1.101.644z" fill="#394075" id="snap_9da89abd-a8e2-41bc-bebe-cedcff778647_9" class="snap_9da89abd-a8e2-41bc-bebe-cedcff778647_path"></path>
        <path d="M125.569 97.029a168.76 168.76 0 0 1 5.449-9.261c.44-.696-.663-1.337-1.101-.644a168.014 168.014 0 0 0-5.449 9.261c-.394.72.707 1.365 1.101.644z" fill="#394075" id="snap_9da89abd-a8e2-41bc-bebe-cedcff778647_10" class="snap_9da89abd-a8e2-41bc-bebe-cedcff778647_path"></path>
        <path d="m99.509 101.989 6.186 17.69c.269.77 1.502.439 1.23-.339l-6.186-17.69c-.269-.771-1.502-.439-1.23.339z" fill="#394075" id="snap_9da89abd-a8e2-41bc-bebe-cedcff778647_11" class="snap_9da89abd-a8e2-41bc-bebe-cedcff778647_path"></path>
        <path d="M84.469 128.213c3.542-8.059 10.818-13.677 19.508-15.064.808-.129.465-1.358-.339-1.23a26.73 26.73 0 0 0-20.27 15.65c-.327.745.772 1.395 1.101.644z" fill="#394075" id="snap_9da89abd-a8e2-41bc-bebe-cedcff778647_12" class="snap_9da89abd-a8e2-41bc-bebe-cedcff778647_path"></path>
        <path d="M100.55 72.07c1.196 7.144 7.049 14.004 14.893 12.467.805-.158.464-1.387-.339-1.23-7.18 1.407-12.258-5.206-13.324-11.576-.136-.808-1.365-.465-1.23.339z" fill="#394075" id="snap_9da89abd-a8e2-41bc-bebe-cedcff778647_13" class="snap_9da89abd-a8e2-41bc-bebe-cedcff778647_path"></path>
        <path d="M55.856 57.645c-4.722-9.021-6.548-20.724 1.571-28.444.596-.567-.307-1.468-.902-.902-8.545 8.126-6.758 20.461-1.77 29.989.38.728 1.481.084 1.101-.643z" fill="#FFFFFF" id="snap_9da89abd-a8e2-41bc-bebe-cedcff778647_14" class="snap_9da89abd-a8e2-41bc-bebe-cedcff778647_path"></path>
    </g></g></svg>