<svg aria-label="" role="presentation" aria-hidden="true" preserveAspectRatio="xMidYMid meet" data-type="color" viewBox="20 31.499 160 137.001" xmlns:xlink="http://www.w3.org/1999/xlink" xmlns="http://www.w3.org/2000/svg" data-bbox="20 31.499 160 137.001" id="snap_9fa3b3e0-c215-4913-8322-845c3542428b_2" class="snap_9fa3b3e0-c215-4913-8322-845c3542428b_svg"><g data-type="color" id="snap_9fa3b3e0-c215-4913-8322-845c3542428b_3" class="snap_9fa3b3e0-c215-4913-8322-845c3542428b_g"><g id="snap_9fa3b3e0-c215-4913-8322-845c3542428b_4">
        <path d="M171.215 168.5a1.472 1.472 0 0 1-1.469-1.472v-56.87c0-.813.66-1.472 1.469-1.472s1.469.659 1.469 1.472v56.87c0 .813-.659 1.472-1.469 1.472z" fill="#3F4447" id="snap_9fa3b3e0-c215-4913-8322-845c3542428b_5" class="snap_9fa3b3e0-c215-4913-8322-845c3542428b_path"></path>
        <path d="M101.813 120.486c-1.138 0-2.269-.172-3.301-.525-1.784-.608-3.107-1.702-3.722-3.079-1.733-3.899 2.667-8.463 5.538-10.545 1.294-.937 3.256-2.347 5.85-1.962 2.692.401 4.63 2.518 5.35 4.438 1.533 4.054-1.275 8.597-4.754 10.481-1.453.784-3.215 1.192-4.961 1.192zm.236-11.764c-2.339 1.696-5.41 5.081-4.576 6.96.277.62.981 1.15 1.985 1.491 1.861.634 4.238.442 5.92-.471 2.352-1.273 4.33-4.401 3.403-6.852-.405-1.079-1.529-2.341-3.037-2.564-1.296-.201-2.402.5-3.695 1.436z" fill="#3F4447" id="snap_9fa3b3e0-c215-4913-8322-845c3542428b_6" class="snap_9fa3b3e0-c215-4913-8322-845c3542428b_path"></path>
        <path d="M99.366 168.495c-1.134 0-2.262-.171-3.295-.524-1.788-.608-3.11-1.702-3.725-3.08-1.737-3.901 2.664-8.465 5.538-10.545 1.294-.937 3.231-2.347 5.85-1.962 2.689.401 4.623 2.517 5.35 4.434 1.529 4.059-1.281 8.602-4.757 10.485-1.453.787-3.215 1.192-4.961 1.192zm3.489-13.233c-1.125 0-2.109.642-3.25 1.467v.002c-2.342 1.694-5.414 5.078-4.576 6.959.277.623.981 1.153 1.985 1.495 1.851.632 4.228.442 5.917-.473 2.352-1.273 4.33-4.401 3.406-6.854-.408-1.076-1.533-2.339-3.037-2.563a2.917 2.917 0 0 0-.445-.033zm-4.11.277h.032-.032z" fill="#3F4447" id="snap_9fa3b3e0-c215-4913-8322-845c3542428b_7" class="snap_9fa3b3e0-c215-4913-8322-845c3542428b_path"></path>
        <path d="M99.305 145.271a3.85 3.85 0 0 1-2.224-.679c-1.612-1.103-2.511-2.978-2.533-5.281-.019-2.105.711-4.353 2.055-6.331 2.084-3.063 6.522-5.495 10.646-3.957 2.635.977 5.296 3.657 5.028 6.694-.213 2.429-2.154 3.768-4.614 5.464-3.075 2.123-5.926 4.089-8.358 4.09zm5.296-13.774c-2.179 0-4.391 1.408-5.57 3.141-.997 1.466-1.561 3.158-1.545 4.645.006.76.178 2.145 1.252 2.877 1.153.8 4.585-1.562 7.086-3.281 2.492-1.72 3.444-2.465 3.527-3.42.127-1.436-1.545-3.09-3.123-3.676a4.654 4.654 0 0 0-1.627-.286zm-6.784 2.312h.032-.032z" fill="#3F4447" id="snap_9fa3b3e0-c215-4913-8322-845c3542428b_8" class="snap_9fa3b3e0-c215-4913-8322-845c3542428b_path"></path>
        <path d="M69.838 168.5a1.469 1.469 0 0 1-1.466-1.418c-.315-8.565-.711-19.224-3.298-31.638a122.297 122.297 0 0 0-.972-4.374 45.923 45.923 0 0 0-7.364-16.064 821.707 821.707 0 0 0-8.046-10.932 836.5 836.5 0 0 0-6.914-8.961c-9.945-12.762-14.934-19.168-12.5-25.634 1.431-3.74 4.652-6.775 7.182-6.775 6.752 0 13.568.468 20.265 1.388 1.714.228 3.766.436 5.834.645 2.371.24 4.764.482 6.736.763a1.467 1.467 0 0 1 1.246 1.662c-.112.806-.867 1.383-1.66 1.25-1.934-.275-4.289-.511-6.615-.747-2.103-.212-4.187-.423-5.936-.656a146.211 146.211 0 0 0-19.87-1.36c-.883 0-3.298 1.899-4.439 4.877-1.848 4.912 2.804 10.882 12.073 22.777 2.093 2.689 4.416 5.669 6.943 8.998a835.864 835.864 0 0 1 8.081 10.983 48.784 48.784 0 0 1 7.838 17.099c.398 1.656.73 3.147.994 4.471 2.638 12.647 3.033 23.444 3.352 32.12a1.468 1.468 0 0 1-1.412 1.525c-.017-.001-.036.001-.052.001z" fill="#3F4447" id="snap_9fa3b3e0-c215-4913-8322-845c3542428b_9" class="snap_9fa3b3e0-c215-4913-8322-845c3542428b_path"></path>
        <path d="M47.266 111.626H30.853c-5.984 0-10.853-5.111-10.853-11.395V53.464c0-6.283 4.869-11.396 10.853-11.396h36.898a1.472 1.472 0 0 1 0 2.944H30.853c-4.365 0-7.915 3.791-7.915 8.452v46.767c0 4.659 3.55 8.45 7.915 8.45h16.413a1.472 1.472 0 0 1 0 2.945z" fill="#3F4447" id="snap_9fa3b3e0-c215-4913-8322-845c3542428b_10" class="snap_9fa3b3e0-c215-4913-8322-845c3542428b_path"></path>
        <path d="M169.147 111.626H155.85a1.472 1.472 0 0 1 0-2.944h13.297c4.365 0 7.915-3.791 7.915-8.45V53.464c0-4.661-3.55-8.452-7.915-8.452h-32.714a1.472 1.472 0 0 1 0-2.944h32.714c5.984 0 10.853 5.113 10.853 11.396v46.767c0 6.284-4.869 11.395-10.853 11.395z" fill="#3F4447" id="snap_9fa3b3e0-c215-4913-8322-845c3542428b_11" class="snap_9fa3b3e0-c215-4913-8322-845c3542428b_path"></path>
        <path d="M30.846 168.5a1.472 1.472 0 0 1-1.469-1.472v-56.87c0-.813.66-1.472 1.469-1.472s1.469.659 1.469 1.472v56.87c0 .813-.659 1.472-1.469 1.472z" fill="#3F4447" id="snap_9fa3b3e0-c215-4913-8322-845c3542428b_12" class="snap_9fa3b3e0-c215-4913-8322-845c3542428b_path"></path>
        <path d="M86.528 105.372c-2.692 0-5.363-1.027-7.488-2.914-4.792-4.26-16.92-14.734-25.998-19.986a1.469 1.469 0 1 1 1.466-2.548c9.311 5.384 21.619 16.013 26.482 20.331 1.842 1.638 4.203 2.405 6.507 2.113.698-.091 1.603-.308 1.937-.834.325-.501.408-1.594.507-2.86.07-.883.057-1.763-.029-2.638a1.468 1.468 0 0 1 1.313-1.613c.746-.081 1.523.506 1.606 1.316.108 1.049.121 2.106.038 3.143-.127 1.685-.239 3.123-.965 4.248-.758 1.182-2.116 1.908-4.031 2.157-.446.056-.896.085-1.345.085z" fill="#3F4447" id="snap_9fa3b3e0-c215-4913-8322-845c3542428b_13" class="snap_9fa3b3e0-c215-4913-8322-845c3542428b_path"></path>
        <path d="M81.901 98.073c-1.039 0-2.218-.211-3.104-1.206-.739-.822-1.278-2.002-1.485-3.237a13.25 13.25 0 0 1-.134-1.333c-.045-.679-.08-1.265-.328-1.712l-.287-.505a3.157 3.157 0 0 1-.239-2.579l.057-.168-.459-.297a3.142 3.142 0 0 1-1.418-2.89l.28-2.798a26.488 26.488 0 0 1-2.476-.733 2.459 2.459 0 0 1-1.157-3.825c1.494-2.001 2.97-4.166 3.062-6.564.057-1.491-.268-2.442-.806-4.013-.43-1.258-.965-2.823-1.469-5.164-.542-2.542-.408-7.976.306-12.372a1.49 1.49 0 0 1 1.686-1.217c.8.131 1.345.888 1.214 1.689-.711 4.362-.746 9.354-.331 11.281.465 2.17.969 3.642 1.373 4.827.58 1.699 1.039 3.042.959 5.081-.112 3.007-1.622 5.459-3.263 7.7.577.184 1.22.367 1.848.506a2.555 2.555 0 0 1 2.007 2.775l-.312 3.095 1.517 1.075c.564.367.809 1.075.589 1.715l-.433 1.258.309.677c.577 1.043.644 2.065.701 2.967.019.343.038.687.099 1.027.115.699.405 1.356.774 1.768.284.318 1.157.236 1.676.185 2.581-.219 5.245-.399 8.367-.612l.57-.038c.784-.069 1.507.559 1.564 1.368a1.473 1.473 0 0 1-1.367 1.568l-.57.038c-3.104.211-5.751.39-8.103.588-.353.036-.774.075-1.217.075zm-6.796-16.65h.006-.006zm-.284-.406c-.003.002-.003.003-.003.005l.003-.005zm-1.322-2.456c0 .002-.003.003-.003.006 0-.003.003-.004.003-.006zm-.245-.731.013.005a.09.09 0 0 0-.013-.005z" fill="#3F4447" id="snap_9fa3b3e0-c215-4913-8322-845c3542428b_14" class="snap_9fa3b3e0-c215-4913-8322-845c3542428b_path"></path>
        <path d="M78.142 88.196a1.472 1.472 0 0 1-.217-2.926l1.354-.204a1.466 1.466 0 0 1 1.673 1.236 1.47 1.47 0 0 1-1.233 1.673l-1.354.204c-.077.011-.15.017-.223.017z" fill="#3F4447" id="snap_9fa3b3e0-c215-4913-8322-845c3542428b_15" class="snap_9fa3b3e0-c215-4913-8322-845c3542428b_path"></path>
        <path d="M126.342 63.219a1.473 1.473 0 0 1-.81-2.7c.373-.248.736-.513 1.083-.797 2.909-2.386 4.314-5.557 4.059-9.169-.347-4.976-3.801-10.279-8.594-13.193-5.777-3.511-12.809-3.837-17.92-.84a1.474 1.474 0 0 1-2.011-.525 1.477 1.477 0 0 1 .526-2.014c6.134-3.598 14.154-3.261 20.928.862 5.57 3.388 9.588 9.619 10.002 15.503.322 4.607-1.453 8.636-5.13 11.652-.424.348-.87.674-1.326.976a1.447 1.447 0 0 1-.807.245z" fill="#3F4447" id="snap_9fa3b3e0-c215-4913-8322-845c3542428b_16" class="snap_9fa3b3e0-c215-4913-8322-845c3542428b_path"></path>
        <path d="M103.543 95.325a1.467 1.467 0 0 1-1.396-1.019 1.47 1.47 0 0 1 .943-1.854c.503-.163 1.424-.572 1.96-1.48.927-1.549.067-3.384-.115-3.735-.535-1.001-1.313-1.36-2.638-1.907-.717-.294-1.526-.628-2.288-1.158-3.4-2.373-3.1-6.457-2.81-10.406.249-3.374.503-6.865-1.361-9.538-1.835-2.63-5.054-3.524-8.778-4.559-3.919-1.087-8.361-2.322-11.904-5.948-.899-.917-3.632-3.708-3.091-7.008.226-1.359.972-2.275 1.466-2.882l.277-.353c2.266-3.221 6.624-7.484 14.508-9.49 2.138-.549 8.67-2.226 15.925.782 5.003 2.066 8.227 5.428 10.05 7.883l.258.236c4.56 4.612 19 20.599 13.784 33.073-2.256 5.4-7.112 8.864-7.316 9.009a74.138 74.138 0 0 1-6.959 3.532c-.29.123-.777.367-1.306.631l-.975.479a1.472 1.472 0 0 1-1.275-2.651l.946-.466c.596-.295 1.147-.568 1.447-.695a72.249 72.249 0 0 0 6.551-3.313c-.013 0 4.27-3.096 6.178-7.663 4.63-11.071-10.145-26.812-13.153-29.856l-.401-.402c-1.737-2.315-4.566-5.268-8.95-7.077-6.354-2.636-11.965-1.198-14.081-.652-7.013 1.785-10.85 5.519-12.831 8.335a11.16 11.16 0 0 1-.401.516c-.382.471-.746.917-.841 1.501-.3 1.825 1.647 3.815 2.288 4.468 2.992 3.063 6.854 4.136 10.591 5.174 4.094 1.137 7.96 2.21 10.4 5.709 2.463 3.531 2.157 7.732 1.883 11.44-.287 3.944-.366 6.429 1.555 7.773.5.347 1.099.592 1.73.853 1.361.56 3.053 1.257 4.12 3.257.902 1.742 1.377 4.38.041 6.611-.755 1.285-2.03 2.274-3.578 2.777a1.46 1.46 0 0 1-.453.073z" fill="#3F4447" id="snap_9fa3b3e0-c215-4913-8322-845c3542428b_17" class="snap_9fa3b3e0-c215-4913-8322-845c3542428b_path"></path>
        <path d="M59.587 86.406a1.472 1.472 0 0 1-.522-2.847l8.163-3.122a1.474 1.474 0 0 1 1.896.85 1.475 1.475 0 0 1-.851 1.9l-8.163 3.122a1.471 1.471 0 0 1-.523.097z" fill="#3F4447" id="snap_9fa3b3e0-c215-4913-8322-845c3542428b_18" class="snap_9fa3b3e0-c215-4913-8322-845c3542428b_path"></path>
        <path d="m132.679 168.5-.054-.002a1.47 1.47 0 0 1-1.412-1.525c.322-8.714.723-19.558 3.358-32.262.261-1.313.589-2.804.988-4.458a48.443 48.443 0 0 1 7.842-17.067 644.206 644.206 0 0 1 8.071-11.008 847.987 847.987 0 0 1 6.949-9.001c9.269-11.898 13.924-17.87 12.073-22.79-1.141-2.97-3.553-4.869-4.435-4.869-6.624 0-13.309.457-19.867 1.36-2.055.289-4.811.608-7.497.92a410.32 410.32 0 0 0-5.955.717 1.484 1.484 0 0 1-1.647-1.268 1.472 1.472 0 0 1 1.265-1.651c1.676-.222 3.814-.469 6-.722 2.661-.308 5.391-.624 7.431-.912a149.247 149.247 0 0 1 20.272-1.389c2.527 0 5.748 3.036 7.179 6.766 2.438 6.477-2.555 12.883-12.503 25.648-2.087 2.679-4.4 5.648-6.918 8.964a664.045 664.045 0 0 0-8.036 10.954 45.523 45.523 0 0 0-7.367 16.037 119.118 119.118 0 0 0-.965 4.358c-2.587 12.471-2.986 23.178-3.304 31.781a1.472 1.472 0 0 1-1.468 1.419z" fill="#3F4447" id="snap_9fa3b3e0-c215-4913-8322-845c3542428b_19" class="snap_9fa3b3e0-c215-4913-8322-845c3542428b_path"></path>
        <path d="M120.826 100.85c-1.682 0-3.33-.339-4.773-.987a12.321 12.321 0 0 1-1.427-.779c-3.107-2.026-4.955-5.56-4.955-9.458v-1.337c0-.813.66-1.472 1.469-1.472s1.469.659 1.469 1.472v1.337c0 2.898 1.348 5.509 3.607 6.984.319.203.679.399 1.058.576 1.102.495 2.406.758 3.76.719 4.318-.073 7.625-2.892 11.815-6.461l1.243-1.057a185.155 185.155 0 0 1 13.81-10.525 1.469 1.469 0 0 1 2.042.377 1.473 1.473 0 0 1-.373 2.047 181.339 181.339 0 0 0-13.59 10.355l-1.233 1.044c-4.451 3.794-8.297 7.071-13.657 7.16-.09.005-.176.005-.265.005z" fill="#3F4447" id="snap_9fa3b3e0-c215-4913-8322-845c3542428b_20" class="snap_9fa3b3e0-c215-4913-8322-845c3542428b_path"></path>
        <path d="M142.93 86.28c-.153 0-.309-.024-.465-.077l-12.991-4.347a1.472 1.472 0 0 1-.927-1.862 1.455 1.455 0 0 1 1.858-.929l12.991 4.347a1.472 1.472 0 0 1-.466 2.868z" fill="#3F4447" id="snap_9fa3b3e0-c215-4913-8322-845c3542428b_21" class="snap_9fa3b3e0-c215-4913-8322-845c3542428b_path"></path>
    </g></g></svg>