<svg aria-label="" role="presentation" aria-hidden="true" preserveAspectRatio="xMidYMid meet" data-type="color" viewBox="9.92 10.467 174.065 172.462" xmlns:xlink="http://www.w3.org/1999/xlink" xmlns="http://www.w3.org/2000/svg" data-bbox="9.92 10.467 174.065 172.462" id="snap_278f2a50-1a0f-4f17-8ae6-a7d4ff0a2bba_2" ><g data-type="color" id="snap_278f2a50-1a0f-4f17-8ae6-a7d4ff0a2bba_3" class="snap_278f2a50-1a0f-4f17-8ae6-a7d4ff0a2bba_g"><g id="snap_278f2a50-1a0f-4f17-8ae6-a7d4ff0a2bba_4" class="snap_278f2a50-1a0f-4f17-8ae6-a7d4ff0a2bba_g">
        <path fill="#005c55" d="M14.5 182.929a1.498 1.498 0 0 1-1.5-1.487l-.025-2.889-2.394-1.617a1.5 1.5 0 0 1 .363-2.666l2.739-.917.798-2.777a1.5 1.5 0 0 1 2.647-.479l1.719 2.323 2.888-.099c.581-.006 1.103.287 1.373.79s.231 1.116-.101 1.581l-1.678 2.352.987 2.715a1.5 1.5 0 0 1-1.86 1.943l-2.756-.869-2.278 1.778c-.268.21-.594.318-.922.318zm.278-6.779l.529.357c.409.276.656.736.661 1.23l.005.639.503-.393c.39-.304.905-.396 1.374-.248l.609.192-.218-.6a1.5 1.5 0 0 1 .188-1.383l.371-.52-.638.022a1.479 1.479 0 0 1-1.257-.606l-.38-.514-.176.614a1.5 1.5 0 0 1-.966 1.008l-.605.202z" id="snap_278f2a50-1a0f-4f17-8ae6-a7d4ff0a2bba_5" class="snap_278f2a50-1a0f-4f17-8ae6-a7d4ff0a2bba_path"></path>
        <path fill="#005c55" d="M29.5 28.046a1.498 1.498 0 0 1-1.5-1.487l-.023-2.622-2.173-1.467a1.5 1.5 0 0 1 .363-2.666l2.486-.833.724-2.52a1.502 1.502 0 0 1 2.648-.478l1.559 2.107 2.62-.09a1.5 1.5 0 1 1 1.273 2.371l-1.522 2.134.896 2.464a1.499 1.499 0 1 1-1.861 1.943l-2.5-.789-2.067 1.613a1.49 1.49 0 0 1-.923.32zm.502-6.361l.308.208c.409.276.656.736.661 1.23l.003.371.292-.228c.39-.305.904-.395 1.374-.248l.354.112-.126-.349a1.5 1.5 0 0 1 .188-1.383l.215-.302-.371.011a1.497 1.497 0 0 1-1.258-.607l-.22-.298-.102.356a1.5 1.5 0 0 1-.966 1.008l-.352.119z" id="snap_278f2a50-1a0f-4f17-8ae6-a7d4ff0a2bba_6" class="snap_278f2a50-1a0f-4f17-8ae6-a7d4ff0a2bba_path"></path>
        <path fill="#005c55" d="M166.5 118.059a1.498 1.498 0 0 1-1.5-1.487l-.043-4.874-4.039-2.728a1.501 1.501 0 0 1 .363-2.666l4.622-1.547 1.346-4.684a1.5 1.5 0 0 1 2.647-.478l2.899 3.917 4.871-.167a1.5 1.5 0 0 1 1.273 2.37l-2.83 3.968 1.664 4.581a1.499 1.499 0 1 1-1.86 1.943l-4.648-1.465-3.842 2.999a1.493 1.493 0 0 1-.923.318zm-1.384-9.873l2.173 1.468c.409.276.656.736.661 1.23l.023 2.623 2.068-1.614a1.502 1.502 0 0 1 1.374-.248l2.502.789-.896-2.465a1.5 1.5 0 0 1 .188-1.383l1.523-2.136-2.621.09a1.477 1.477 0 0 1-1.257-.607l-1.561-2.108-.724 2.521a1.5 1.5 0 0 1-.966 1.008l-2.487.832z" id="snap_278f2a50-1a0f-4f17-8ae6-a7d4ff0a2bba_7" class="snap_278f2a50-1a0f-4f17-8ae6-a7d4ff0a2bba_path"></path>
        <path fill="#005c55" d="M22.5 55.638c-2.481 0-4.5-2.019-4.5-4.5s2.019-4.5 4.5-4.5 4.5 2.019 4.5 4.5-2.019 4.5-4.5 4.5zm0-6c-.827 0-1.5.673-1.5 1.5s.673 1.5 1.5 1.5 1.5-.673 1.5-1.5-.673-1.5-1.5-1.5z" id="snap_278f2a50-1a0f-4f17-8ae6-a7d4ff0a2bba_8" class="snap_278f2a50-1a0f-4f17-8ae6-a7d4ff0a2bba_path"></path>
        <path fill="#005c55" d="M148.5 85.638c-2.481 0-4.5-2.019-4.5-4.5s2.019-4.5 4.5-4.5 4.5 2.019 4.5 4.5-2.019 4.5-4.5 4.5zm0-6c-.827 0-1.5.673-1.5 1.5s.673 1.5 1.5 1.5 1.5-.673 1.5-1.5-.673-1.5-1.5-1.5z" id="snap_278f2a50-1a0f-4f17-8ae6-a7d4ff0a2bba_9" class="snap_278f2a50-1a0f-4f17-8ae6-a7d4ff0a2bba_path"></path>
        <path fill="#005c55" d="M41.5 161.638c-2.481 0-4.5-2.019-4.5-4.5s2.019-4.5 4.5-4.5 4.5 2.019 4.5 4.5-2.019 4.5-4.5 4.5zm0-6c-.827 0-1.5.673-1.5 1.5s.673 1.5 1.5 1.5 1.5-.673 1.5-1.5-.673-1.5-1.5-1.5z" id="snap_278f2a50-1a0f-4f17-8ae6-a7d4ff0a2bba_10" class="snap_278f2a50-1a0f-4f17-8ae6-a7d4ff0a2bba_path"></path>
        <path d="M129.533 57.023a2.25 2.25 0 1 1-4.5 0 2.25 2.25 0 0 1 4.5 0z" fill="#005c55" id="snap_278f2a50-1a0f-4f17-8ae6-a7d4ff0a2bba_11" class="snap_278f2a50-1a0f-4f17-8ae6-a7d4ff0a2bba_path"></path>
        <path d="M174 16.388a2.25 2.25 0 1 1-4.5 0 2.25 2.25 0 0 1 4.5 0z" fill="#005c55" id="snap_278f2a50-1a0f-4f17-8ae6-a7d4ff0a2bba_12" class="snap_278f2a50-1a0f-4f17-8ae6-a7d4ff0a2bba_path"></path>
        <path d="M145 176.388a2.25 2.25 0 1 1-4.5 0 2.25 2.25 0 0 1 4.5 0z" fill="#005c55" id="snap_278f2a50-1a0f-4f17-8ae6-a7d4ff0a2bba_13" class="snap_278f2a50-1a0f-4f17-8ae6-a7d4ff0a2bba_path"></path>
        <path d="M19 93.388a2.25 2.25 0 1 1-4.5 0 2.25 2.25 0 0 1 4.5 0z" fill="#005c55" id="snap_278f2a50-1a0f-4f17-8ae6-a7d4ff0a2bba_14" class="snap_278f2a50-1a0f-4f17-8ae6-a7d4ff0a2bba_path"></path>
        <path d="M134 104.388a2.25 2.25 0 1 1-4.5 0 2.25 2.25 0 0 1 4.5 0z" fill="#005c55" id="snap_278f2a50-1a0f-4f17-8ae6-a7d4ff0a2bba_15" class="snap_278f2a50-1a0f-4f17-8ae6-a7d4ff0a2bba_path"></path>
        <path d="M23 148.388a2.25 2.25 0 1 1-4.5 0 2.25 2.25 0 0 1 4.5 0z" fill="#005c55" id="snap_278f2a50-1a0f-4f17-8ae6-a7d4ff0a2bba_16" class="snap_278f2a50-1a0f-4f17-8ae6-a7d4ff0a2bba_path"></path>
        <path fill="#005c55" d="M50.899 101.979a2.001 2.001 0 0 1-1.939-1.516l-3-12a2 2 0 1 1 3.881-.969l3 12a2 2 0 0 1-1.942 2.485z" id="snap_278f2a50-1a0f-4f17-8ae6-a7d4ff0a2bba_17" class="snap_278f2a50-1a0f-4f17-8ae6-a7d4ff0a2bba_path"></path>
        <path fill="#f4efe9" d="M93.248 57.086c.366-.039.392-.622.592-.931 10.344-15.923 28.288-26.454 48.69-26.454a57.778 57.778 0 0 1 23.965 5.184c-14.188-13.862-33.583-22.418-54.986-22.418-25.008 0-47.292 11.664-61.708 29.849 0 .001 16.816 17.593 43.447 14.77z" id="snap_278f2a50-1a0f-4f17-8ae6-a7d4ff0a2bba_18" class="snap_278f2a50-1a0f-4f17-8ae6-a7d4ff0a2bba_path"></path>
        <path fill="#ffeee6" d="M49.801 42.317C68.063 59.86 93.515 56.773 93.515 56.773c-5.86 9.063-9.261 19.864-9.261 31.46 0 32.044 25.977 58.021 58.021 58.021a57.758 57.758 0 0 0 34.991-11.744c-14.034 21.585-38.348 35.872-66.013 35.872-43.466 0-78.702-35.236-78.702-78.702 0-18.758 6.562-35.983 17.516-49.505" id="snap_278f2a50-1a0f-4f17-8ae6-a7d4ff0a2bba_19" class="snap_278f2a50-1a0f-4f17-8ae6-a7d4ff0a2bba_path"></path>
        <path d="M181.985 42.085c0 5.523-4.477 10-10 10s-10-4.477-10-10 4.477-10 10-10 10 4.477 10 10z" fill="#fff978" id="snap_278f2a50-1a0f-4f17-8ae6-a7d4ff0a2bba_20" class="snap_278f2a50-1a0f-4f17-8ae6-a7d4ff0a2bba_path"></path>
        <path fill="#f4efe9" d="M73.113 118.723s8.184 2.993 17.092-2.503" id="snap_278f2a50-1a0f-4f17-8ae6-a7d4ff0a2bba_21" class="snap_278f2a50-1a0f-4f17-8ae6-a7d4ff0a2bba_path"></path>
        <path fill="#005c55" d="M171.985 54.085c6.617 0 12-5.383 12-12s-5.383-12-12-12c-2.178 0-4.216.592-5.979 1.611-14.927-13.698-34.17-21.229-54.496-21.229-24.793 0-47.856 11.156-63.276 30.607-.034.043-.058.09-.088.135-.027.04-.055.079-.079.121a1.966 1.966 0 0 0-.124.268c-.01.027-.027.051-.036.078C36.708 55.851 30.552 73.568 30.552 91.68c0 44.5 36.203 80.702 80.702 80.702 27.41 0 52.715-13.75 67.689-36.781a2 2 0 0 0-2.884-2.684c-9.795 7.417-21.478 11.338-33.784 11.338-30.89 0-56.021-25.131-56.021-56.021 0-10.655 3.001-20.995 8.674-29.944.255-.292.476-.641.635-1.094l.017-.047c10.399-15.937 27.942-25.447 46.95-25.447a55.525 55.525 0 0 1 19.6 3.556 11.922 11.922 0 0 0-2.145 6.829c0 6.615 5.384 11.998 12 11.998zm-6.003-17.269c.198-.266 1.801-1.726 2.507-1.914a7.941 7.941 0 0 1 3.497-.816c4.411 0 8 3.589 8 8s-3.589 8-8 8-8-3.589-8-8a7.949 7.949 0 0 1 1.996-5.27zM82.254 88.233a59.638 59.638 0 0 0 6.26 26.647c-7.655 4.37-14.428 2.068-14.722 1.963a2 2 0 1 0-1.366 3.759c.192.07 2.651.94 6.314.94 3.207 0 7.339-.691 11.676-3.146 10.416 17.838 29.754 29.858 51.858 29.858 9.502 0 18.658-2.182 26.959-6.376-14.479 16.757-35.484 26.503-57.98 26.503-42.294 0-76.702-34.409-76.702-76.702 0-16.706 5.511-33.059 15.564-46.323 4.605 4.054 17.913 14.04 37.289 14.04.74 0 1.498-.029 2.256-.059a59.85 59.85 0 0 0-7.406 28.896zm60.277-60.532c-20.327 0-39.087 10.153-50.235 27.167-4.124.274-20.631.653-34.988-9.057a52.288 52.288 0 0 1-2.29-1.652 46.47 46.47 0 0 1-2.473-2.048c14.639-17.593 36.022-27.644 58.965-27.644 16.6 0 32.448 5.272 45.582 15.017a59.814 59.814 0 0 0-14.561-1.783z" id="snap_278f2a50-1a0f-4f17-8ae6-a7d4ff0a2bba_22" class="snap_278f2a50-1a0f-4f17-8ae6-a7d4ff0a2bba_path"></path>
        <path fill="#005c55" d="M67.079 82.95a20.956 20.956 0 0 0 1.918-2.094 2 2 0 0 0-3.123-2.499 16.1 16.1 0 0 1-2.7 2.67 1.973 1.973 0 0 0-.705.504c-.007.008-.011.017-.018.025-6.782 4.66-15.025 2.262-15.432 2.139a2 2 0 0 0-1.172 3.825c.202.062 1.984.59 4.588.805v6.283a2 2 0 0 0 4 0V88.35a23.018 23.018 0 0 0 3.224-.461l2.953 6.541a2 2 0 1 0 3.646-1.646l-2.768-6.131a18.968 18.968 0 0 0 2.357-1.223l5.26 4.672a1.996 1.996 0 0 0 2.824-.167 1.999 1.999 0 0 0-.167-2.823l-4.685-4.162z" id="snap_278f2a50-1a0f-4f17-8ae6-a7d4ff0a2bba_23" class="snap_278f2a50-1a0f-4f17-8ae6-a7d4ff0a2bba_path"></path>
    </g></g></svg>