<svg aria-label="" role="presentation" aria-hidden="true" preserveAspectRatio="xMidYMid meet" data-type="color" viewBox="20 47.933 160.02 104.067" xmlns:xlink="http://www.w3.org/1999/xlink" xmlns="http://www.w3.org/2000/svg" data-bbox="20 47.933 160.02 104.067" id="snap_b1bd63c2-9398-450c-822b-9c4bf4b14ff7_2" class="snap_b1bd63c2-9398-450c-822b-9c4bf4b14ff7_svg"><g data-type="color" id="snap_b1bd63c2-9398-450c-822b-9c4bf4b14ff7_3" class="snap_b1bd63c2-9398-450c-822b-9c4bf4b14ff7_g"><g id="snap_b1bd63c2-9398-450c-822b-9c4bf4b14ff7_4">
        <path fill="#ffc299" d="M180 98.1c-.1.5-.4.8-.6 1-.6.6-1.4 1-2.1 1.4l-1.5.9c-.5.4-.8 1.1-.8 1.6 0 .3.1.5.2.6.9.8.7 2.1 0 3l-.3.3c-.1.2-.4.4-.4.5l.1.2c.1.2.2.4.3.8.2 1.1-.6 2-1.1 2.5-1 1.1-1.5 2-1.5 2.9 0 .4.1.8.3 1.2.1.4.2.7.3 1.1.5 2.6-1.3 5.4-4.1 6.6-2.1.9-4.6.9-7.6.2-1-.3-2.1-.6-3.1-.9-1.3-.4-2.5-.8-3.7-1.1-.3-.1-.5-.1-.6 0l-.3.3c-.6.9-1.7 2.9-2 3.9-.5 2-.7 3.4-.9 5l-.3 1.8c-.6 3.9-.5 11.3-.3 15.1 0 .5-.4 1-.9 1s-.9-.4-1-.9c-.1-1.1-.5-10.6.3-15.5l.3-1.8c.2-1.5.4-3 1-5.2.3-1.4 1.6-3.6 2.3-4.5.2-.3.6-.8 1.1-1 .6-.3 1.3-.2 1.9-.1 1.3.3 2.6.7 3.9 1.1 1 .3 1.9.6 2.9.9 2.6.6 4.7.6 6.3-.1 1.7-.7 3.2-2.6 2.9-4.5-.1-.3-.1-.6-.2-.9-.1-.5-.3-1-.3-1.6-.1-1.4.6-2.8 2-4.3.2-.2.6-.7.6-.8 0 0-.1-.2-.1-.3 0-.1-.1-.2-.1-.3-1.2.5-2.6.8-3.4.9h-.1c-.5 0-.9-.4-1-.9 0-.5.4-1 .9-1 1.3-.1 3.8-1 4.4-1.7.1-.1.2-.4.2-.5-.5-.5-.8-1.2-.8-2 0-1.1.6-2.3 1.5-3.1.6-.5 1.2-.8 1.8-1.1.6-.3 1.2-.7 1.7-1.1l-.1-.1-3.2-5.6c-.7-1.1-1.4-2.4-1.7-3.9-.4-1.7-.1-3.4.2-5.1v-.1c2.2-12.6-5.7-24.8-14.6-29.3-1.6-.8-3.1-1.5-4.8-2.1-8.4-1.9-16.1-2.2-22.9-.6-9.9 2.2-18.8 8.7-25.4 14.1-4.1 3.4-8 7.1-11.7 10.9-.6 2.5-1.2 5-1.7 7.5-.1.5-.6.9-1.1.8-.5-.1-.9-.6-.8-1.1.3-1.3.6-2.8.9-4.3-1.3 1.4-2.6 2.7-3.8 4.1-2.1 2.3-4.4 4.7-6.6 7-1.8 1.9-3.7 3.7-5.6 5.5v.2c-.8 1.8-1.5 3.5-2.2 5.3-.2.5-.8.8-1.3.6-.5-.2-.8-.7-.6-1.2.2-.6.5-1.2.7-1.8-4 3.5-8.4 6.8-13.2 9.5v.1c-.7 2.6-4.1 5-5.2 5.7-.4.3-1.1.2-1.4-.3-.3-.4-.2-1 .2-1.3 1-.7 2.1-1.6 3-2.5-1 .5-2 .9-3 1.4-3.3 1.4-7 2-10.8 2-4.2 0-8.4-.8-12.1-2.5-.5-.2-.7-.8-.5-1.3.2-.5.8-.7 1.3-.5 6.5 2.9 14.9 3.1 21.3.4 3.2-1.3 6.3-3 9.1-4.8-.9-.1-1.9-.4-2.8-.6-.5-.2-.8-.7-.7-1.2.2-.5.7-.8 1.2-.6 1.4.4 2.9.7 4.1.7.2 0 .3.1.5.2 6.2-4.3 11.6-9.5 16.3-14.3.5-.5 1-1.1 1.5-1.6-1.6.4-3.3.7-4.6.7h-.2c-.5 0-1-.5-.9-1 0-.5.5-1 1-.9 2 .1 5.9-.9 7.6-2 .1 0 .2-.1.2-.1.7-.7 1.3-1.4 2-2.1 3.6-3.9 7.3-7.9 11.3-11.7-.3.1-.6.1-.8.1-.5.1-1-.3-1.1-.8-.1-.5.3-1 .9-1.1 1.2-.1 3-.5 3.9-.9 1.4-1.3 2.8-2.5 4.3-3.7 6.8-5.5 16-12.2 26.2-14.5 7.1-1.6 15.1-1.4 23.8.6h.2c1.7.6 3.4 1.4 5 2.2 9.5 4.8 18 17.9 15.7 31.4v.1c-.3 1.5-.5 3-.2 4.3.2 1.1.9 2.2 1.5 3.3l3.2 5.6c.2.4.5.9.4 1.6zm-61.6 2.9c.3-.4.2-1-.2-1.4-.4-.3-1-.2-1.4.2-6.9 8.9-14 18.2-22.8 25.4-18.8 15.4-33 10-38.3 7-.5-.3-1.1-.1-1.3.3-.3.5-.1 1.1.3 1.3 2.7 1.6 7.6 3.7 14.2 3.7 7.1 0 16.1-2.5 26.3-10.9 9.1-7.3 16.3-16.6 23.2-25.6zm-.3 20.6c-.5-.2-1.1-.1-1.3.4-4.8 9.2-17.6 18.3-27.9 19.9-.5.1-.9.6-.8 1.1.1.5.6.9 1.1.8 6-.9 12.8-4.3 18.6-8.8-.6 1.1-1.2 2.1-2 3-.5 0-1 .4-1 1 0 .5.4 1 1 1 .3 0 .6-.1.8-.4.3 0 .6-.1.8-.4.7-.9 3.1-4 3.3-6.6 3.4-3 6.2-6.4 7.9-9.7.1-.5 0-1-.5-1.3zm-39.2-4.2c2.7-1.9 5.2-3.9 7.6-6.1-.5.9-.9 1.9-1.3 2.7-.2.5 0 1.1.5 1.3.1.1.3.1.4.1.4 0 .7-.2.9-.6 1.2-2.4 2.4-4.8 3.6-7.1.1-.1.1-.3.1-.5.9-.9 1.7-1.8 2.6-2.7.4-.1.6-.4.7-.7 2.9-3.1 5.6-6.3 8.3-9.5l1.5-1.8c-.3 1.5-.7 3-.9 4.3-.1.5.2 1 .8 1.1h.2c.5 0 .9-.3 1-.8.5-2.6 1.1-5.2 1.8-7.8v-.2l8.1-9.6c.3-.4.3-1-.1-1.4-.4-.3-1-.3-1.4.1L100.8 93c-2.8 3.3-5.6 6.6-8.5 9.8-1.7.5-3.4.9-5.1 1.2-.5.1-.9.6-.8 1.1.1.5.6.9 1.1.8.8-.2 1.5-.3 2.3-.5-3.7 3.8-7.6 7.4-12 10.4-5.9 4.1-12.8 6.8-19.9 7.7-3.5.5-7 .5-10.6.2-1.4-.1-2.9-.3-4.2-.6-.4-.1-.8-.2-1.2-.2-1.4-.3-2.7-.5-3.8-1.3-.4-.3-1.1-.2-1.4.3-.3.4-.2 1 .3 1.3 1.4 1 3 1.3 4.5 1.6.4.1.8.1 1.1.2 1.5.3 3 .5 4.5.6 1.5.1 3 .2 4.5.2 2.2 0 4.3-.1 6.5-.4 7.5-1 14.6-3.8 20.8-8zm86.2-27.6s0 .1 0 0c.4.3.6.8.4 1.3-.2.5-.7.8-1.2.6-1.8-.6-3.8-2.2-5.1-3.3-.1-.1-.2-.2-.2-.4-.3.2-.7.3-1 .6-.5.3-1.1.2-1.4-.3-.3-.4-.2-1 .3-1.3 3.2-2.1 6.5-2.1 9.6-2 .1-.1.4-.4.8-1.1.2-.5.8-.7 1.3-.4.5.2.7.8.4 1.3-.8 1.5-1.6 2.2-2.6 2.2h-.7c0 .9 0 1.5-.6 2.8zm-4.2-2.6c.9.7 1.7 1.3 2.4 1.8.4-.9.4-1.3.5-2.2-1 .1-2 .2-2.9.4zm-.4-28.4c.2-.5 0-1.1-.4-1.3-.5-.2-1.1 0-1.3.4-3.5 6.9-10.4 11.6-17.3 15.7-.8.5-1.6.9-2.4 1.4-3.8 2.2-7.7 4.4-11.2 7.1-.4.3-.5.9-.2 1.4.3.4.9.5 1.4.2 3.4-2.6 7.3-4.8 11-7 .8-.5 1.6-.9 2.4-1.4 7.1-4.2 14.3-9.1 18-16.5zm-36.7 13.6c.2 0 .5-.1.6-.2 4.3-3.7 9-6.9 14-9.6.5-.2.7-.8.4-1.3-.3-.5-.8-.7-1.3-.4-5.1 2.7-10 6-14.4 9.9-.4.3-.4 1-.1 1.4.2 0 .5.2.8.2zm2 15.8c-1.6.2-2.9 1.3-3.5 2.3-1.1 2 .2 4.5 1.4 6.5 1.2 1.8 1.2 2.4 1.2 3.7 0 .6 0 1.3.1 1.9 0 .5.2 1.5 1.1 2 .2.1.3.1.5.1.4 0 .7-.2.9-.5.3-.5.1-1-.4-1.3 0 0-.1-.1-.1-.6-.1-.6-.1-1.2-.1-1.8 0-1.6-.1-2.5-1.5-4.7-.5-.8-2.1-3.3-1.4-4.5.3-.6 1.1-1.2 2-1.3.7-.1 1.3.2 1.8.8.4.4 1 .4 1.4.1.4-.4.4-1 .1-1.4-1.3-1.3-2.6-1.4-3.5-1.3zm43.9-8.6c.2-.3.3-.7.2-1.1-.3-.8-1.7-1.3-2.5-1.5-1-.3-2.1-.5-3.2-.5-2.1-.1-4.2.3-6.2.9-2.8.8-5.5 2.9-7.2 5.1-.1.2-.2.5-.4.6 2.1-2.2 3.8-2.7 4.7-3.1 3-1 6.4-1.3 9.5-.5 1.3.3 2.6 1.1 4 .9.5-.2.9-.4 1.1-.8z" id="snap_b1bd63c2-9398-450c-822b-9c4bf4b14ff7_5" class="snap_b1bd63c2-9398-450c-822b-9c4bf4b14ff7_path"></path>
        <path fill="#4400ff" d="M28.7 112c-3.9-1.2-8.7-5.7-8.7-5.7s1.1-1.1 3.7-1.8 6.5-.8 8.4.3c2 1.1 3.6 3.4 3.6 3.4l2.7 3.5-1.4.3c-3.7.4-6.9.5-8.3 0zm18.5 4.6c-1.4 2.5-1.5 7.3-1.6 7.5 5.5-3.2 9.6-11.3 9.6-11.3s-1.9-.2-3.3.3c-2.9 1-3.8 1.9-4.7 3.5zm5.7-12.4c4.4-.5 7 .1 7 .1l-.3-.8s-.5-.4-2.3-1.9c-1.7-1.6-4.7-4.1-7.3-4.5-2.6-.4-4 .3-6 .9-2 .6-4 2.3-4 2.3s8.5 4.4 12.9 3.9zm13.9.1c-1.2 1.8-1.9 5.7-1.8 8.6.1 2.8.7 4.2.7 4.2s4.3-4.1 6-7.8c.6-1.3 1.2-4.6 1.5-8.5l.1-1.5-3.2 2s-2.1 1.2-3.3 3zM74 83.6c-4.1-2.3-6.1-2.6-9.1-2.1-4.5.8-10.4 5.7-10.7 5.7 9.5 3.5 23.6.1 23.6.1s-1.7-2.5-3.8-3.7zm17.3 9.7c1.2-2.3 1-6.1.9-8.4-.2-2.3-.1-3-.1-3l-.5-.7s-1.1 2.4-4 5.5c-3 3.2-4.6 12.5-4.6 12.5s2.5-.5 4.1-1.7c1.6-1.2 2.9-1.9 4.2-4.2zM98.4 69l-.7-.5s-.7 0-3-.2-6.1-.5-8.4.7c-2.3 1.2-3 2.5-4.3 4-1.2 1.5-1.8 4-1.8 4s9.3-1.3 12.5-4.2c3.4-2.8 5.7-3.8 5.7-3.8zm-17 35.4c-3.1.8-6.7 3.4-6.7 3.4s1 .6 3.1 1c2.2.4 5.3.4 6.8-.3s2.7-2 2.7-2l1.9-2.1-1.2-.1c-2.8-.2-5.5-.2-6.6.1zm18.4 6.7c1.6-1.2 2.9-1.9 4.1-4.2 1.2-2.3 1-6.1.9-8.4-.2-2.3-.1-3-.1-3l-.5-.7s-1.1 2.4-4 5.5c-2.9 3.2-4.5 12.5-4.5 12.5s2.5-.4 4.1-1.7zm-15.9 13.1c1.7-1.9 2.5-5.7 2.9-8 .4-2.3.6-2.9.6-2.9l-.3-.8s-1.6 2-5.2 4.4c-3.6 2.4-7.4 11-7.4 11s2.5.1 4.4-.7c1.8-.8 3.3-1.1 5-3zm5 16.2c-2.1.5-5.3 3-7.1 5.1-1.9 2.1-2.3 3.5-2.3 3.5s5.9-.1 9.7-1.7c1.3-.6 4-2.6 6.8-5.2l1.1-1-3.7-.7s-2.4-.5-4.5 0zM45 128.6s.6 2.5 1.9 4c1.3 1.5 2.1 2.8 4.4 3.9 2.3 1.1 6.2.7 8.5.5 2.3-.3 3-.3 3-.3l.7-.5s-2.4-1-5.7-3.8c-3.5-2.7-12.8-3.8-12.8-3.8zm69.2 0l-.6-.6s-.6-.1-2.8-.8-5.9-1.8-8.4-1.1c-2.5.6-3.5 1.8-5 3-1.5 1.3-2.6 3.5-2.6 3.5s9.4.7 13.1-1.4c3.8-2.2 6.3-2.6 6.3-2.6zm-12.4 15.3c-.7 2.8.7 7.4.6 7.6 4.4-4.6 6-13.6 6-13.6s-1.9.4-3.1 1.3c-2.4 1.7-3 2.8-3.5 4.7zm-67.3-26.1c-2.8-.6-7.4.8-7.6.7 4.7 4.3 13.7 5.8 13.7 5.8s-.4-1.9-1.3-3.1c-1.8-2.3-2.9-2.9-4.8-3.4z" id="snap_b1bd63c2-9398-450c-822b-9c4bf4b14ff7_6" class="snap_b1bd63c2-9398-450c-822b-9c4bf4b14ff7_path"></path>
        <path fill="#ffc299" d="M61 145.8c-1.9 0-1.9-2.9 0-2.9s1.9 2.9 0 2.9zm-8.4 3.5c-1.2 0-1.2 1.9 0 1.9 1.3.1 1.3-1.9 0-1.9zm17.1-3.1c-3.7 0-3.7 5.8 0 5.8s3.8-5.8 0-5.8zm-1-16.8c1.9 0 1.9-2.9 0-2.9-1.8 0-1.8 2.9 0 2.9zm-29.6-1.3c-1.2 0-1.2 1.9 0 1.9 1.2.1 1.2-1.9 0-1.9z" id="snap_b1bd63c2-9398-450c-822b-9c4bf4b14ff7_7" class="snap_b1bd63c2-9398-450c-822b-9c4bf4b14ff7_path"></path>
    </g></g></svg>