<svg aria-label="" role="presentation" aria-hidden="true" preserveAspectRatio="xMidYMid meet" data-type="color" viewBox="15 15 170 170" xmlns:xlink="http://www.w3.org/1999/xlink" xmlns="http://www.w3.org/2000/svg" data-bbox="15 15 170 170" id="snap_2652fac3-1016-4c1b-a578-a8f2eb56f58c_2" class="snap_2652fac3-1016-4c1b-a578-a8f2eb56f58c_svg"><g data-type="color" id="snap_2652fac3-1016-4c1b-a578-a8f2eb56f58c_3" class="snap_2652fac3-1016-4c1b-a578-a8f2eb56f58c_g"><g id="snap_2652fac3-1016-4c1b-a578-a8f2eb56f58c_4">
        <path d="M64.6 135.8c-.8 0-1.6-.1-2.3-.2-5.4-1.3-5.6-7.8-5.8-12.1v-.3c-.1-3.2 0-6.6.3-10.1.5-5.4 1.5-10.6 2.9-15.4 1.9-6.3 4.5-11.9 7.9-16.7 1.4-2.1 3.1-4.1 4.8-6.1l.7-.8c1.7-1.9 3.4-3.8 5.7-4.9 1.2-.6 3-1.2 4.9-.4.8.3 1.7.9 2.4 1.8.4.4.7.9 1.1 1.5.9 1.6 1.8 3.3 2.5 4.7 1.1 2.3 2.1 4.7 3.1 7.1.8 2.1 1.5 4 2 5.8l.2.7c.5 1.7 1.1 3.8.9 5.5 0 .3-.1.5-.2.8-.4 1.4-.8 2.9-1.1 4.4l-.1.3c-.2 1.1-.5 2.3-.2 3.3.1.5 3.3 11.9-2.9 15.8-3.1 1.8-6.4 3.8-10 6.1-2.3 1.4-4.3 2.8-6.2 4l-2.4 1.8c-.9.7-1.8 1.4-2.8 2-1.6 1-3.6 1.4-5.4 1.4zm17.2-66.5c-1 0-1.9.3-2.6.7-2.1 1.1-3.8 2.9-5.4 4.7l-.7.8c-1.7 2-3.3 4-4.8 6.1-3.3 4.7-5.9 10.2-7.7 16.4-1.4 4.8-2.4 9.9-2.9 15.2-.3 3.5-.4 6.8-.3 10v.3c.1 4.2.3 10 5 11.1 2.2.5 5.1.1 6.7-1 .9-.6 1.9-1.3 2.7-2 .8-.6 1.6-1.2 2.5-1.8 1.9-1.3 3.9-2.6 6.2-4.1 3.6-2.3 6.9-4.3 10.1-6.1 5.6-3.6 2.5-14.6 2.5-14.7-.3-1.2 0-2.5.2-3.7l.1-.3c.3-1.6.7-3.1 1.2-4.5.1-.2.1-.4.2-.6.2-1.5-.4-3.5-.8-5.1l-.2-.7c-.5-1.7-1.1-3.6-2-5.7-.9-2.4-2-4.8-3.1-7.1-.7-1.4-1.5-3.1-2.4-4.6-.3-.5-.6-1-1-1.4-.6-.7-1.3-1.2-2-1.5-.5-.3-1-.4-1.5-.4zm-9 5.8z" fill="#bd805c" id="snap_2652fac3-1016-4c1b-a578-a8f2eb56f58c_5" class="snap_2652fac3-1016-4c1b-a578-a8f2eb56f58c_path"></path>
        <path d="M81.7 124.7c-9.7 0-15.5-4.6-18.8-8.6-3.8-4.7-4.9-9.5-5-9.7-.1-.3.1-.5.4-.6.3-.1.5.1.6.4 0 .2 4.6 19.1 25.2 17.5.3 0 .5.2.5.5s-.2.5-.5.5h-2.4z" fill="#d90000" id="snap_2652fac3-1016-4c1b-a578-a8f2eb56f58c_6" class="snap_2652fac3-1016-4c1b-a578-a8f2eb56f58c_path"></path>
        <path d="M76.5 94.6h-.1c-.3-.1-.4-.3-.4-.6.5-5.6-8.9-10.9-9-11-.2-.1-.3-.4-.2-.7.1-.2.4-.3.7-.2.4.2 8.4 4.7 9.4 10.2 2.3-3.9 8.7-14.1 11.5-16 .2-.2.5-.1.7.1.2.2.1.5-.1.7-3.2 2.1-11.5 15.9-12 17.1-.1.3-.3.4-.5.4z" fill="#d90000" id="snap_2652fac3-1016-4c1b-a578-a8f2eb56f58c_7" class="snap_2652fac3-1016-4c1b-a578-a8f2eb56f58c_path"></path>
        <path d="M139.7 135.8c-1.8 0-3.8-.4-5.2-1.4-1-.6-1.9-1.3-2.8-2l-2.4-1.8c-1.9-1.3-3.9-2.6-6.2-4-3.6-2.3-6.9-4.3-10-6.1-6.3-4-3.1-15.4-3-15.9.2-1 0-2.2-.2-3.2l-.1-.3c-.3-1.5-.7-3-1.1-4.4-.1-.3-.2-.5-.2-.8-.3-1.7.4-3.8.9-5.5l.2-.7c.5-1.8 1.2-3.6 2-5.8.9-2.4 2-4.8 3.1-7.1.7-1.5 1.5-3.2 2.5-4.7.4-.6.7-1.1 1.1-1.5.7-.8 1.5-1.4 2.4-1.8 1.8-.7 3.7-.2 4.9.4 2.3 1.1 4 3.1 5.7 4.9l.7.8c1.8 2 3.4 4.1 4.8 6.1 3.3 4.8 6 10.4 7.9 16.7 1.4 4.8 2.4 10 2.9 15.4.3 3.5.4 6.9.3 10.1v.3c-.1 4.3-.4 10.8-5.8 12.1-.8.1-1.6.2-2.4.2zm-17.3-66.5c-.5 0-1 .1-1.5.3-.7.3-1.4.8-2 1.5-.3.4-.7.8-1 1.4-.9 1.5-1.7 3.2-2.4 4.6-1.1 2.3-2.1 4.7-3.1 7.1-.8 2.1-1.5 4-2 5.7l-.2.7c-.5 1.6-1.1 3.6-.8 5.1 0 .2.1.4.2.6.4 1.4.9 2.9 1.2 4.5l.1.3c.2 1.2.5 2.5.2 3.7 0 .1-3.1 11.2 2.5 14.8 3.1 1.8 6.4 3.8 10 6.1 2.3 1.5 4.3 2.8 6.2 4.1.8.6 1.7 1.2 2.5 1.8.9.7 1.8 1.4 2.7 2 1.6 1.1 4.5 1.5 6.7 1 4.7-1.1 4.9-6.9 5-11.1v-.3c.1-3.1 0-6.5-.3-10-.5-5.3-1.5-10.4-2.9-15.2-1.8-6.2-4.4-11.7-7.7-16.4-1.4-2-3-4.1-4.8-6.1l-.7-.8c-1.6-1.8-3.3-3.7-5.4-4.7-.6-.3-1.5-.7-2.5-.7z" fill="#bd805c" id="snap_2652fac3-1016-4c1b-a578-a8f2eb56f58c_8" class="snap_2652fac3-1016-4c1b-a578-a8f2eb56f58c_path"></path>
        <path d="M122.6 124.7c-.8 0-1.6 0-2.5-.1-.3 0-.5-.3-.5-.5 0-.3.3-.5.5-.5 8.6.7 15.5-2.1 20.4-8.2 3.7-4.6 4.8-9.4 4.8-9.5.1-.3.3-.4.6-.4.3.1.4.3.4.6-.1.3-4.4 18.6-23.7 18.6z" fill="#d90000" id="snap_2652fac3-1016-4c1b-a578-a8f2eb56f58c_9" class="snap_2652fac3-1016-4c1b-a578-a8f2eb56f58c_path"></path>
        <path d="M127.7 94.6c-.2 0-.4-.1-.4-.3-.6-1.2-8.7-15.8-11.8-17.9-.2-.2-.3-.5-.1-.7.2-.2.5-.3.7-.1 2.9 1.9 9.1 12.7 11.3 16.8 1.1-5.5 9.1-10 9.4-10.2.2-.1.5 0 .7.2.1.2 0 .5-.2.7-.1.1-9.5 5.4-9 11 0 .2-.1.5-.4.5h-.2z" fill="#d90000" id="snap_2652fac3-1016-4c1b-a578-a8f2eb56f58c_10" class="snap_2652fac3-1016-4c1b-a578-a8f2eb56f58c_path"></path>
        <path d="M109.3 97.9c-.2 0-.3-.1-.4-.2-1.7-2.3-3.6-3.6-5.8-3.7-4.1-.2-7.6 3.7-7.6 3.7-.2.2-.5.2-.7 0-.2-.2-.2-.5 0-.7.2-.2 3.9-4.3 8.4-4 2.5.1 4.7 1.5 6.6 4.1.2.2.1.5-.1.7-.2 0-.3.1-.4.1z" fill="#bd805c" id="snap_2652fac3-1016-4c1b-a578-a8f2eb56f58c_11" class="snap_2652fac3-1016-4c1b-a578-a8f2eb56f58c_path"></path>
        <path d="M94 89.7c-.1 0-.3-.1-.4-.2-.2-.2-.2-.5 0-.7 2.5-2.4 2.8-6 2.8-9.5V57.5c0-.3.2-.5.5-.5h8.8c.3 0 .5.2.5.5v22.6c0 1-.1 2 0 3 .3 2.2 1.5 3.7 4 4.8.3.1.4.4.3.6-.1.3-.4.4-.6.3-2.8-1.2-4.3-3-4.6-5.6-.1-1-.1-2.1-.1-3.1V58h-7.8v21.3c0 3.7-.2 7.6-3.1 10.2 0 .1-.1.2-.3.2z" fill="#bd805c" id="snap_2652fac3-1016-4c1b-a578-a8f2eb56f58c_12" class="snap_2652fac3-1016-4c1b-a578-a8f2eb56f58c_path"></path>
        <path d="M105.5 64.7h-8.3c-.3 0-.5-.2-.5-.5s.2-.5.5-.5h8.3c.3 0 .5.2.5.5 0 .2-.3.5-.5.5z" fill="#bd805c" id="snap_2652fac3-1016-4c1b-a578-a8f2eb56f58c_13" class="snap_2652fac3-1016-4c1b-a578-a8f2eb56f58c_path"></path>
        <path d="M105.5 69.5h-8.3c-.3 0-.5-.2-.5-.5s.2-.5.5-.5h8.3c.3 0 .5.2.5.5s-.3.5-.5.5z" fill="#bd805c" id="snap_2652fac3-1016-4c1b-a578-a8f2eb56f58c_14" class="snap_2652fac3-1016-4c1b-a578-a8f2eb56f58c_path"></path>
        <path d="M105.5 79.2h-8.3c-.3 0-.5-.2-.5-.5s.2-.5.5-.5h8.3c.3 0 .5.2.5.5s-.3.5-.5.5z" fill="#bd805c" id="snap_2652fac3-1016-4c1b-a578-a8f2eb56f58c_15" class="snap_2652fac3-1016-4c1b-a578-a8f2eb56f58c_path"></path>
        <path d="M105.5 74.4h-8.3c-.3 0-.5-.2-.5-.5s.2-.5.5-.5h8.3c.3 0 .5.2.5.5 0 .2-.3.5-.5.5z" fill="#bd805c" id="snap_2652fac3-1016-4c1b-a578-a8f2eb56f58c_16" class="snap_2652fac3-1016-4c1b-a578-a8f2eb56f58c_path"></path>
        <path d="M100 185c-46.9 0-85-38.1-85-85s38.1-85 85-85 85 38.1 85 85-38.1 85-85 85zm0-169.5c-46.6 0-84.5 37.9-84.5 84.5s37.9 84.5 84.5 84.5 84.5-37.9 84.5-84.5-37.9-84.5-84.5-84.5z" fill="#bd805c" id="snap_2652fac3-1016-4c1b-a578-a8f2eb56f58c_17" class="snap_2652fac3-1016-4c1b-a578-a8f2eb56f58c_path"></path>
        <path d="M100.5 178.2c-43.4 0-78.7-35.3-78.7-78.7s35.3-78.7 78.7-78.7 78.7 35.3 78.7 78.7-35.3 78.7-78.7 78.7zm0-156.4c-42.8 0-77.7 34.8-77.7 77.7s34.8 77.7 77.7 77.7 77.7-34.8 77.7-77.7-34.9-77.7-77.7-77.7z" fill="#bd805c" id="snap_2652fac3-1016-4c1b-a578-a8f2eb56f58c_18" class="snap_2652fac3-1016-4c1b-a578-a8f2eb56f58c_path"></path>
    </g></g></svg>