<svg
   version="1.1"
   id="svg1"
   width="500"
   height="500"
   viewBox="0 0 500 500"
   xmlns:xlink="http://www.w3.org/1999/xlink"
   xmlns="http://www.w3.org/2000/svg"
   xmlns:svg="http://www.w3.org/2000/svg">
  <defs
     id="defs1" />

  <g
     id="g1">
    <path
    fill="currentColor"
       d="m 247.52452,482.45162 c -6.87283,-11.72759 -9.42216,-29.39077 -6.12798,-42.45796 C 243.19996,432.83993 248.59426,421 250.05009,421 c 1.28691,0 7.38965,12.3743 9.33742,18.93316 2.07346,6.9821 2.09366,21.42125 0.041,29.34253 C 257.7037,475.93214 252.49088,487 251.08063,487 c -0.48982,0 -2.09007,-2.04677 -3.55611,-4.54838 z M 102,403.37096 C 78.395768,400.17127 56.395202,392.82964 43.104774,383.71752 l -4.395226,-3.01344 0.633543,-11.60204 C 41.924957,321.82048 74.432866,258.63989 109.5,232.74893 c 17.40993,-12.8542 34.38428,-18.87061 53.75,-19.05122 6.4625,-0.0603 11.75,-0.18573 11.75,-0.2788 0,-0.0931 -1.59347,-3.66586 -3.54104,-7.93953 -8.18282,-17.95601 -11.4041,-42.19357 -8.48084,-63.81143 3.60963,-26.69353 16.58104,-56.367107 36.21663,-82.849619 C 206.99606,48.296703 222.35162,32.46004 231.43798,25.564875 238.56993,20.152818 249.24789,14 251.50835,14 c 1.94839,0 14.23918,8.581882 23.3073,16.274013 31.44778,26.675933 59.24208,70.625397 67.81132,107.225987 1.45099,6.19742 1.85913,11.71783 1.81135,24.5 -0.056,14.98522 -0.3096,17.30857 -2.76227,25.30747 -2.73489,8.91929 -6.34162,16.93712 -9.86753,21.93571 -1.06425,1.50874 -1.69573,3.1303 -1.4033,3.60346 0.29243,0.47317 3.58339,1.14395 7.31324,1.49063 22.95207,2.13333 46.4053,13.50738 65.77784,31.90008 17.36727,16.48887 28.16763,31.24593 38.98171,53.26265 12.16557,24.76825 17.41016,43.64893 18.23696,65.65363 l 0.55059,14.65364 -4.01286,2.53321 c -5.13438,3.24119 -13.283,6.6392 -25.2527,10.5305 -22.73528,7.39114 -41.48894,10.13123 -69.28438,10.12312 -28.44765,-0.008 -44.30732,-2.63871 -63.29156,-10.49726 -20.18372,-8.35507 -37.89094,-23.3757 -46.11733,-39.12025 -1.5437,-2.95451 -3.10865,-5.37291 -3.47765,-5.37421 -0.36901,-0.001 -2.39401,2.40502 -4.5,5.34739 -19.88735,27.78547 -50.65613,44.93322 -90.02811,50.17359 -13.49892,1.79669 -39.47025,1.72243 -53.30097,-0.1524 z m 58.15849,-8.42259 c 33.30946,-5.56419 60.87354,-21.19729 77.52991,-43.97146 7.84469,-10.726 8.16497,-11.85017 7.56821,-26.56389 -0.41487,-10.22904 -0.15557,-14.76955 1.18844,-20.81063 5.28232,-23.74302 25.25514,-45.89765 47.45713,-52.6413 9.45574,-2.87209 25.78001,-2.47308 34.14017,0.83449 10.87022,4.30062 21.61781,15.00687 27.80653,27.69957 8.1074,16.62781 8.31646,36.80031 0.51954,50.13104 -3.04436,5.20506 -11.80427,13.544 -16.94179,16.12762 -18.82961,9.46926 -40.07748,2.33518 -48.64698,-16.33347 -1.83744,-4.00284 -2.26056,-6.69181 -2.26912,-14.42034 -0.009,-8.1628 0.35503,-10.27417 2.58655,-15 2.94915,-6.24558 8.81988,-12.356 15.09714,-15.71352 5.61972,-3.00581 6.27956,-2.90772 7.51483,1.11719 1.02283,3.33268 0.96365,3.44017 -2.83778,5.15438 -4.92607,2.22135 -10.31779,7.43672 -12.87966,12.4584 -3.08115,6.03956 -2.79874,17.97116 0.58614,24.76374 5.95474,11.9496 20.18598,17.38984 33.34518,12.747 9.01638,-3.18116 17.22508,-11.37973 20.75415,-20.72853 2.66122,-7.0498 2.20065,-21.64918 -0.96299,-30.52495 -4.99939,-14.02606 -15.66573,-26.23346 -26.46743,-30.29139 -24.67775,-9.27082 -53.34004,5.09658 -66.8662,33.51768 -21.13858,44.41627 13.09859,92.11503 72.52101,101.03526 38.77375,5.82055 82.85711,0.28715 116.59006,-14.63454 6.54734,-2.8962 6.89432,-3.68398 6.16267,-13.99149 C 452.26344,345.31603 446.38852,324.84774 436.0282,303.5 418.09014,266.53813 391.68667,239.82877 361.34843,227.95505 352.12832,224.34651 336.25159,221 328.35178,221 c -5.09069,0 -6.11277,0.40582 -11.71454,4.65126 -7.43338,5.63357 -18.25098,10.80981 -26.8056,12.82652 -8.34372,1.967 -27.38915,1.9489 -35.83164,-0.034 -25.44936,-5.97745 -44.08803,-25.94341 -45.6901,-48.94374 -1.10902,-15.9219 5.16138,-31.15239 18.1179,-44.00744 9.38077,-9.30731 17.60639,-13.81867 28.46555,-15.61202 25.49999,-4.21124 50.2149,18.5016 45.35332,41.67938 -2.47324,11.7912 -9.87241,21.03112 -21.0286,26.26002 -4.83623,2.26674 -7.02894,2.67297 -14.21807,2.63411 -8.75498,-0.0473 -12.74352,-1.36313 -20.32244,-6.70431 l -2.82243,-1.98909 2.75217,-2.87265 c 2.42551,-2.53169 2.94069,-2.70205 4.34042,-1.43531 3.46958,3.13992 10.57806,5.50339 16.55228,5.50339 17.96423,0 31.48087,-17.93709 26.37036,-34.99445 -4.537,-15.14314 -24.84428,-24.75395 -41.03679,-19.42143 -16.68699,5.49537 -31.46991,23.11284 -34.78915,41.4598 -2.31044,12.77086 2.9864,27.14285 13.69537,37.15984 6.07215,5.67978 12.0252,9.1646 21.36606,12.50733 6.58377,2.35608 8.87372,2.64967 20.89415,2.67879 11.50227,0.0279 14.46187,-0.30251 20,-2.23261 C 308.8447,224.2428 321.50655,213.5304 328.77539,199 335.02342,186.51021 337,177.45701 337,161.32945 337,140.506 333.14384,125.95358 321.64645,103.388 309.79824,80.133859 294.05608,58.745982 276.84327,42.516725 267.37376,33.588311 253.55048,23 251.36375,23 c -6.69264,0 -28.99629,18.759113 -42.48493,35.733143 -15.88689,19.991978 -27.33688,41.774807 -34.02417,64.728657 -4.31985,14.82769 -5.13367,22.02147 -4.58215,40.50368 0.54256,18.18195 2.0291,25.18111 8.20904,38.6511 5.28675,11.52317 7.47424,14.09327 15.14165,17.79006 18.77093,9.05027 32.42435,25.56169 38.94186,47.09336 2.83284,9.35876 2.64189,27.954 -0.37676,36.69044 C 224.39521,326.74479 206.72569,339 182,339 c -15.96441,0 -29.53137,-4.96838 -39.97853,-14.64061 -19.808,-18.33871 -17.15888,-50.54874 5.17498,-62.92131 C 152.07264,258.73675 153.3058,258.5 162.5,258.5 c 8.74771,0 10.71337,0.33438 15.6965,2.67018 6.62851,3.10706 13.71017,9.79733 16.91971,15.98461 1.71501,3.30614 2.35783,6.55715 2.68818,13.59521 0.40089,8.54093 0.29088,9.24461 -1.43511,9.17971 -4.78684,-0.17998 -5.78175,-1.36469 -5.50618,-6.55659 0.37101,-6.99033 -2.93777,-15.30442 -7.86081,-19.75209 -6.75604,-6.10368 -11.52782,-8.01598 -20.00229,-8.01598 -8.87127,0 -13.6563,2.05836 -19.29549,8.30026 -5.56145,6.15586 -7.02993,10.32315 -7.08103,20.09469 -0.0574,10.96804 2.8351,17.43166 11.31313,25.28083 13.34749,12.35742 37.56479,15.97871 54.81603,8.19682 7.11812,-3.21092 15.56523,-11.42496 19.17225,-18.64325 8.05107,-16.11162 6.40617,-38.81074 -4.1041,-56.63543 C 206.9715,233.79934 184.95065,221 164.14395,221 c -14.76597,0 -30.86372,5.05191 -44.43437,13.9447 -15.12459,9.91108 -25.159463,20.33429 -37.649539,39.10652 -20.217672,30.38658 -31.983907,62.27496 -35.639323,96.58826 l -0.654042,6.13948 4.629084,2.71282 c 26.38192,15.46083 71.61019,21.8298 109.76273,15.45659 z M 111.5,176.37416 c -10.27922,-2.0242 -13.33897,-2.85642 -17.826387,-4.84858 -7.547255,-3.35058 -16.57821,-10.38548 -21.305709,-16.59666 -4.790054,-6.29337 -7.558105,-11.40539 -6.661355,-12.30214 1.088588,-1.08858 9.529509,-0.64747 16.793451,0.87762 10.338298,2.17055 20.5913,7.61829 27.9435,14.84726 6.10579,6.00346 12.94206,16.21548 11.94028,17.83639 -0.50254,0.81312 -7.12468,0.92635 -10.88378,0.18611 z m 274.09913,-0.21377 c -1.11477,-1.80373 7.1651,-13.77922 13.47491,-19.48927 7.11201,-6.436 16.47076,-11.18216 26.00394,-13.18752 7.67979,-1.6155 16.50945,-1.96017 17.30344,-0.67546 0.96137,1.55552 -7.09415,12.74384 -13.30078,18.47348 -9.8949,9.13444 -21.20793,14.01219 -35.50315,15.30759 -4.87289,0.44157 -7.52865,0.29883 -7.97836,-0.42882 z"
       id="path1" />
  </g>
</svg>
